<?xml version="1.0" encoding="utf-8"?>
<!-- Generator: Adobe Illustrator 18.1.0, SVG Export Plug-In . SVG Version: 6.00 Build 0)  -->
<svg version="1.1" id="Layer_1" xmlns="http://www.w3.org/2000/svg" xmlns:xlink="http://www.w3.org/1999/xlink" x="0px" y="0px"
	 viewBox="0 0 1000 1000" enable-background="new 0 0 1000 1000" xml:space="preserve">
<g>
	<path fill="#71A9BB" d="M218.7,129.3c76-58.7,170.7-94.7,274.7-96.7c119.3-2,228.7,41.3,312,114L774.7,178
		C700,112.7,601.3,74,494,76c-107.3,2.7-204,44.7-276.7,112l-30.7-28.7L218.7,129.3z"/>
	<path fill="#71A9BB" d="M816.7,828L816.7,828l-33.3,28.7C707.3,916,612.7,952,510,954c-118.7,2-228-42-311.3-115.3l30.7-31.3
		c75.3,65.3,174,104.7,280,102.7c106.7-2,204-44.7,276.7-112.7L816.7,828z"/>
	<path fill="#EE3A42" d="M836.7,177.3C912.7,258,960,366,962,485.3c2,118.7-41.3,228-114.7,311.3l-31.3-30
		c65.3-75.3,104.7-173.3,102.7-280c-2-107.3-44-204.7-112-277.3L836.7,177.3z"/>
	<path fill="#EE3A42" d="M40.7,501.3c-2-119.3,41.3-228.7,114.7-312l31.3,30.7c-65.3,75.3-104,173.3-102,280.7
		c2,106.7,44.7,203.3,112.7,276l-30,31.3C90.7,728,42.7,620,40.7,501.3z"/>
	<g>
		<path fill="#EE3A42" d="M317.3,441.3h97.3v199.3h164.7v-106L578.7,334H413.3h-96v-51.3c20.7-31.3,56-46.7,104.7-46h140.7
			C616,236,653.3,250,674,280v409.3c-30,30-64,45.3-102,47.3H422.7c-45.3,0-80.7-11.3-104.7-34V441.3H317.3z"/>
	</g>
</g>
</svg>
